<svg xmlns="http://www.w3.org/2000/svg" width="1400" height="720" viewBox="0 0 1400 720" role="img" aria-labelledby="title desc">
<title id="title">Barrel step 3 chamfer</title><desc id="desc"></desc>
<defs><style>
.bg{fill:#0b1118} .mesh{fill:#111a24;stroke:#9fb4c8;stroke-width:3} .edge{fill:none;stroke:#8298ad;stroke-width:2}
.support{fill:none;stroke:#4fa8ff;stroke-width:5} .shape{fill:none;stroke:#7ce3c4;stroke-width:5} .warn{fill:none;stroke:#ff708d;stroke-width:4;stroke-dasharray:10 8}
.pivot{fill:#ffcf5a;stroke:#0b1118;stroke-width:3} .label{fill:#eaf3ff;font:700 30px Arial,sans-serif} .small{fill:#a8bacd;font:22px Arial,sans-serif}
.call{fill:#d9e8f6;font:700 22px Arial,sans-serif} .line{stroke:#d9e8f6;stroke-width:2} .uv{fill:#172536;stroke:#5f7c98;stroke-width:2}
</style><pattern id="checker" width="40" height="40" patternUnits="userSpaceOnUse"><rect width="40" height="40" fill="#d7dde5"/><rect width="20" height="20" fill="#6f7b88"/><rect x="20" y="20" width="20" height="20" fill="#6f7b88"/></pattern></defs>
<rect class="bg" width="100%" height="100%"/><text class="label" x="55" y="60">BARREL • STEP 3</text><text class="small" x="55" y="95">Chamfer only the rims and bands that need to catch light.</text><ellipse cx="500" cy="210" rx="170" ry="45" class="mesh"/><path class="mesh" d="M330,210 L330,540 M670,210 L670,540"/><ellipse cx="500" cy="540" rx="170" ry="45" class="edge"/><path class="edge" d="M372.5,180.23529775052336 L372.5,510.23529775052333"/><path class="edge" d="M423.5,169.81371502614357 L423.5,499.81371502614354"/><path class="edge" d="M474.5,165.50913015010832 L474.5,495.5091301501083"/><path class="edge" d="M525.5,165.50913015010832 L525.5,495.5091301501083"/><path class="edge" d="M576.5,169.81371502614357 L576.5,499.81371502614354"/><path class="edge" d="M627.5,180.23529775052336 L627.5,510.23529775052333"/><ellipse cx="500" cy="215" rx="170" ry="45" class="support"/><ellipse cx="500" cy="255" rx="170" ry="45" class="support"/><ellipse cx="500" cy="300" rx="170" ry="45" class="support"/><ellipse cx="500" cy="445" rx="170" ry="45" class="support"/><ellipse cx="500" cy="495" rx="170" ry="45" class="support"/><ellipse cx="500" cy="540" rx="170" ry="45" class="support"/><line class="line" x1="670" y1="215" x2="850" y2="180"/><circle cx="670" cy="215" r="7" fill="#eaf3ff"/><text class="call" x="862" y="187">Rolled top rim</text><line class="line" x1="670" y1="445" x2="850" y2="420"/><circle cx="670" cy="445" r="7" fill="#eaf3ff"/><text class="call" x="862" y="427">Band highlight edges</text><text class="small" x="55" y="665">If 2 chamfer segments look identical to 1 from gameplay distance, keep 1.</text></svg>